<svg width="800" height="800" xmlns="http://www.w3.org/2000/svg">
 <g id="Layer_1">
  <title>Layer 1</title>
  <text transform="matrix(0.852929 0 0 0.886184 21.1782 26.1436)" stroke="#000" xml:space="preserve" text-anchor="start" font-family="'Brygada 1918'" font-size="158" stroke-width="0" id="svg_2" y="381.7706" x="149.86215" fill="#000000">XLSX</text>
  <path stroke="#000" id="svg_5" d="m799.00001,693.50796l-214.30571,-214.5497c28.87082,-47.66098 45.80236,-103.42102 45.83243,-163.21554c-0.03007,-174.41572 -141.10615,-315.68251 -315.2333,-315.74273c-174.15723,0.06022 -315.29345,141.32701 -315.29345,315.71262c0,174.29529 141.13622,315.56208 315.29345,315.56208c59.75659,0 115.45322,-16.95081 163.06,-45.8545l214.36586,214.57981l106.28072,-106.49204zm-678.73501,-377.79534c0.18044,-107.8469 87.30417,-195.03971 194.99835,-195.28057c107.63404,0.24086 194.81791,87.43367 194.99835,195.28057c-0.21052,107.78669 -87.36431,194.97949 -194.99835,195.22035c-107.69419,-0.24086 -194.81791,-87.43367 -194.99835,-195.22035z" stroke-width="0" fill="#000000"/>
  <path id="svg_6" d="m454.86386,440.67388l-0.03563,-0.26821c0.0048,-0.05958 0.00762,-0.12929 0.00762,-0.20404c-0.00001,-0.21804 -0.02346,-0.39464 -0.05241,-0.39471c-0.02896,0.00008 -0.05242,0.17667 -0.05242,0.39468c0,0.21789 0.02347,0.39449 0.05242,0.39449c0.00994,0 0.0192,-0.02119 0.02711,-0.05732l0.03564,0.26825l0.01767,-0.13313zm-0.11285,-0.47229c0.00003,-0.13482 0.01452,-0.24382 0.03242,-0.24412c0.0179,0.0003 0.03239,0.1093 0.03242,0.24412c-0.00004,0.13475 -0.01453,0.24375 -0.03242,0.24405c-0.01791,-0.0003 -0.03239,-0.1093 -0.03242,-0.24405z" stroke-width="0" stroke="#000" fill="#000000"/>
 </g>
</svg>