<svg width="800" height="800" xmlns="http://www.w3.org/2000/svg">
 <g id="Layer_1">
  <title>Layer 1</title>
  <text transform="matrix(0.852929 0 0 0.886184 21.1782 26.1436)" stroke="#000" xml:space="preserve" text-anchor="start" font-family="'Brygada 1918'" font-size="158" stroke-width="0" id="svg_2" y="308.42239" x="133.44813" fill="#000000">XLSX</text>
  <path stroke="#000" id="svg_5" d="m712,754.21497l-97.63114,-100.30198c13.15267,-22.28151 20.86616,-48.34933 20.87986,-76.30326c-0.0137,-81.53935 -64.28365,-147.58158 -143.61067,-147.60973c-79.34072,0.02815 -143.63807,66.07038 -143.63807,147.59565c0,81.48305 64.29735,147.52527 143.63807,147.52527c27.22328,0 52.59696,-7.9245 74.28516,-21.43698l97.65854,100.31606l48.41825,-49.78503zm-309.21095,-176.61932c0.0822,-50.41843 39.77311,-91.18106 88.8353,-91.29367c49.03478,0.1126 88.75309,40.87524 88.8353,91.29367c-0.0959,50.39028 -39.80051,91.15291 -88.8353,91.26552c-49.06218,-0.1126 -88.75309,-40.87524 -88.8353,-91.26552z" stroke-width="0" fill="#000000"/>
  <path id="svg_6" d="m454.86386,440.67388l-0.03563,-0.26821c0.0048,-0.05958 0.00762,-0.12929 0.00762,-0.20404c-0.00001,-0.21804 -0.02346,-0.39464 -0.05241,-0.39471c-0.02896,0.00008 -0.05242,0.17667 -0.05242,0.39468c0,0.21789 0.02347,0.39449 0.05242,0.39449c0.00994,0 0.0192,-0.02119 0.02711,-0.05732l0.03564,0.26825l0.01767,-0.13313zm-0.11285,-0.47229c0.00003,-0.13482 0.01452,-0.24382 0.03242,-0.24412c0.0179,0.0003 0.03239,0.1093 0.03242,0.24412c-0.00004,0.13475 -0.01453,0.24375 -0.03242,0.24405c-0.01791,-0.0003 -0.03239,-0.1093 -0.03242,-0.24405z" stroke-width="0" stroke="#000" fill="#000000"/>
  <path stroke="#000" id="svg_7" d="m447.48007,91.92366c-39.07001,-37.0431 -81.20918,-66.71695 -115.77628,-70.76239c-1.88181,-0.26241 -3.83083,-0.41548 -5.89187,-0.45921l-227.49771,0c-3.62921,0 -7.21362,1.37764 -9.7675,3.9361c-2.53149,2.49287 -4.03246,5.99162 -4.03246,9.55598l0,563.08143c0,3.54249 1.41136,6.93192 4.03246,9.51225c2.6211,2.5366 6.07109,3.91424 9.7675,3.91424l411.40009,0c3.62921,0 7.1016,-1.35577 9.7227,-3.91424c2.6211,-2.55847 4.07726,-5.94789 4.07726,-9.51225l0,-374.69516c-0.80649,-43.49394 -35.70963,-90.92398 -76.03419,-130.65676zm-19.42299,19.06823c18.03404,17.18765 34.25347,36.64949 46.35084,55.41159c-10.48438,-4.04544 -21.48403,-7.04125 -31.81159,-9.42478c-22.73857,-4.98573 -44.98428,-6.99752 -58.80664,-7.8066c0.06721,-2.90834 0.08961,-6.18843 0.08961,-9.75279c0,-19.00263 -1.23214,-46.09614 -7.9753,-69.97517c-0.06721,-0.21867 -0.11201,-0.43734 -0.20162,-0.65602c17.11553,11.02109 35.75444,25.65027 52.35472,42.20377zm67.81246,472.74786l-383.80017,0l0,-536.14099l213.76495,0l0,0.04373c9.31945,-0.54668 17.36196,8.44075 23.52266,28.99596c5.60063,19.57118 7.01199,45.09025 6.98959,62.78085c0.04481,12.96727 -0.60487,21.67043 -0.60487,21.67043l-1.09772,14.25744l14.69606,0.15307c0.06721,0 33.96224,0.39361 67.20759,7.76287c31.94601,6.73511 56.92483,20.1616 59.2547,35.35933c0.08961,1.35577 0.11201,2.71154 0.08961,3.97984l0,361.13747l-0.0224,0z" stroke-width="0" fill="#000000"/>
 </g>
</svg>