<svg width="800" height="800" xmlns="http://www.w3.org/2000/svg">
 <g id="Layer_1">
  <title>Layer 1</title>
  <text transform="matrix(1.75211 0 0 2.5599 -230.118 -414.003)" stroke="#000" xml:space="preserve" text-anchor="start" font-family="'Brygada 1918'" font-size="158" stroke-width="0" id="svg_2" y="308.42239" x="133.44813" fill="#000000">XLSX</text>
  <path stroke="#000" id="svg_5" d="m776,715.21497l-90.12105,-100.30198c12.14092,-22.28151 19.26107,-48.34933 19.27371,-76.30326c-0.01265,-81.53935 -59.33876,-147.58158 -132.5637,-147.60973c-73.23758,0.02815 -132.58899,66.07038 -132.58899,147.59565c0,81.48305 59.3514,147.52527 132.58899,147.52527c25.12918,0 48.55104,-7.9245 68.57092,-21.43698l90.14635,100.31606l44.69377,-49.78503zm-285.4255,-176.61932c0.07588,-50.41843 36.71364,-91.18106 82.00181,-91.29367c45.26288,0.1126 81.92593,40.87524 82.00181,91.29367c-0.08853,50.39028 -36.73894,91.15291 -82.00181,91.26552c-45.28817,-0.1126 -81.92593,-40.87524 -82.00181,-91.26552z" stroke-width="0" fill="#000000"/>
  <path id="svg_6" d="m454.86386,440.67388l-0.03563,-0.26821c0.0048,-0.05958 0.00762,-0.12929 0.00762,-0.20404c-0.00001,-0.21804 -0.02346,-0.39464 -0.05241,-0.39471c-0.02896,0.00008 -0.05242,0.17667 -0.05242,0.39468c0,0.21789 0.02347,0.39449 0.05242,0.39449c0.00994,0 0.0192,-0.02119 0.02711,-0.05732l0.03564,0.26825l0.01767,-0.13313zm-0.11285,-0.47229c0.00003,-0.13482 0.01452,-0.24382 0.03242,-0.24412c0.0179,0.0003 0.03239,0.1093 0.03242,0.24412c-0.00004,0.13475 -0.01453,0.24375 -0.03242,0.24405c-0.01791,-0.0003 -0.03239,-0.1093 -0.03242,-0.24405z" stroke-width="0" stroke="#000" fill="#000000"/>
 </g>
</svg>